<?xml version="1.0"?>
<svg xmlns="http://www.w3.org/2000/svg" xmlns:xlink="http://www.w3.org/1999/xlink" xmlns:svgjs="http://svgjs.com/svgjs" version="1.1" width="512" height="512" x="0" y="0" viewBox="0 0 480 480" style="enable-background:new 0 0 512 512" xml:space="preserve" class=""><g>
<g xmlns="http://www.w3.org/2000/svg">
	<g>
		<path d="M424,256H224V56c0-4.416-3.576-8-8-8C96.896,48,0,144.896,0,264s96.896,216,216,216s216-96.896,216-216    C432,259.584,428.424,256,424,256z M16,264c0-107.6,85.416-195.632,192-199.84v196.528L69.12,399.568    C36.176,363.896,16,316.272,16,264z M216,464c-52.272,0-99.896-20.176-135.568-53.12L219.312,272H415.84    C411.624,378.584,323.6,464,216,464z" fill="#ffffff" data-original="#000000" style=""/>
	</g>
</g>
<g xmlns="http://www.w3.org/2000/svg">
	<g>
		<path d="M469.56,149.752l0.096-0.096l-0.184-0.184C441.344,62.832,359.888,0,264,0c-4.424,0-8,3.584-8,8v208c0,4.416,3.576,8,8,8    h208c4.424,0,8-3.584,8-8C480,192.896,476.312,170.64,469.56,149.752z M272,16.16c6.376,0.248,12.672,0.808,18.88,1.648    L272,36.688V16.16z M272,59.312l37.976-37.976c6.68,1.576,13.216,3.52,19.624,5.752l-57.6,57.6V59.312z M272,107.312l73.8-73.8    c5.76,2.592,11.368,5.456,16.816,8.56L272,132.688V107.312z M272,155.312L376.544,50.768c4.992,3.416,9.824,7.048,14.488,10.888    L272,180.688V155.312z M272,208v-4.688l130.96-130.96c4.304,4.16,8.416,8.512,12.328,13.048L292.688,208H272z M315.312,208    L425.32,97.992c3.608,4.912,6.992,9.992,10.144,15.232L340.688,208H315.312z M363.312,208l80.16-80.16    c2.832,5.752,5.392,11.656,7.672,17.696L388.688,208H363.312z M411.312,208l45.416-45.416c1.888,6.8,3.4,13.752,4.56,20.816    l-24.6,24.6H411.312z M459.312,208l4.256-4.256c0.088,1.424,0.216,2.832,0.272,4.256H459.312z" fill="#ffffff" data-original="#000000" style=""/>
	</g>
</g>
<g xmlns="http://www.w3.org/2000/svg">
</g>
<g xmlns="http://www.w3.org/2000/svg">
</g>
<g xmlns="http://www.w3.org/2000/svg">
</g>
<g xmlns="http://www.w3.org/2000/svg">
</g>
<g xmlns="http://www.w3.org/2000/svg">
</g>
<g xmlns="http://www.w3.org/2000/svg">
</g>
<g xmlns="http://www.w3.org/2000/svg">
</g>
<g xmlns="http://www.w3.org/2000/svg">
</g>
<g xmlns="http://www.w3.org/2000/svg">
</g>
<g xmlns="http://www.w3.org/2000/svg">
</g>
<g xmlns="http://www.w3.org/2000/svg">
</g>
<g xmlns="http://www.w3.org/2000/svg">
</g>
<g xmlns="http://www.w3.org/2000/svg">
</g>
<g xmlns="http://www.w3.org/2000/svg">
</g>
<g xmlns="http://www.w3.org/2000/svg">
</g>
</g></svg>
