<?xml version="1.0"?>
<svg xmlns="http://www.w3.org/2000/svg" xmlns:xlink="http://www.w3.org/1999/xlink" xmlns:svgjs="http://svgjs.com/svgjs" version="1.1" width="512" height="512" x="0" y="0" viewBox="0 0 478.583 478.583" style="enable-background:new 0 0 512 512" xml:space="preserve"><g>
<g xmlns="http://www.w3.org/2000/svg">
	<g>
		<path d="M267.327,0.292c-10.6-1.272-21.064,1.672-29.464,8.272c-8.408,6.608-13.736,16.088-15,26.696    c-1.264,10.608,1.672,21.072,8.28,29.472c6.608,8.4,16.088,13.72,26.696,14.992c80.24,9.592,140.744,77.888,140.744,158.856    c0,88.224-71.776,160-160,160c-80.968,0-149.264-60.504-158.856-140.752c-1.272-10.632-6.6-20.128-15-26.736    c-8.392-6.6-18.88-9.512-29.464-8.24c-10.608,1.272-20.088,6.592-26.696,14.992c-6.608,8.4-9.544,18.864-8.28,29.472    c14.4,120.44,116.84,211.264,238.296,211.264c132.336,0,240-107.664,240-240C478.583,117.124,387.759,14.684,267.327,0.292z     M238.583,462.58c-113.36,0-208.968-84.76-222.4-197.16c-0.76-6.368,1-12.648,4.968-17.68c3.96-5.04,9.648-8.232,16.024-9    c0.984-0.12,1.96-0.176,2.936-0.176c5.336,0,10.488,1.768,14.736,5.112c5.04,3.96,8.24,9.664,9,16.048    c10.552,88.288,85.672,154.856,174.736,154.856c97.048,0,176-78.952,176-176c0-89.064-66.568-164.184-154.848-174.744    c-6.368-0.76-12.056-3.952-16.016-8.992c-3.968-5.04-5.728-11.32-4.968-17.68s3.96-12.048,9-16.008    c5.04-3.96,11.328-5.744,17.672-4.968c112.4,13.424,197.16,109.032,197.16,222.392C462.583,362.092,362.095,462.58,238.583,462.58    z" fill="#ffffff" data-original="#000000" style=""/>
	</g>
</g>
<g xmlns="http://www.w3.org/2000/svg">
	<g>
		
			<rect x="174.08" y="230.593" transform="matrix(0.4961 -0.8682 0.8682 0.4961 -86.9563 327.3463)" width="128.953" height="15.999" fill="#ffffff" data-original="#000000" style=""/>
	</g>
</g>
<g xmlns="http://www.w3.org/2000/svg">
	<g>
		<rect x="262.583" y="238.58" width="16" height="16" fill="#ffffff" data-original="#000000" style=""/>
	</g>
</g>
<g xmlns="http://www.w3.org/2000/svg">
	<g>
		<rect x="198.583" y="222.58" width="16" height="16" fill="#ffffff" data-original="#000000" style=""/>
	</g>
</g>
<g xmlns="http://www.w3.org/2000/svg">
</g>
<g xmlns="http://www.w3.org/2000/svg">
</g>
<g xmlns="http://www.w3.org/2000/svg">
</g>
<g xmlns="http://www.w3.org/2000/svg">
</g>
<g xmlns="http://www.w3.org/2000/svg">
</g>
<g xmlns="http://www.w3.org/2000/svg">
</g>
<g xmlns="http://www.w3.org/2000/svg">
</g>
<g xmlns="http://www.w3.org/2000/svg">
</g>
<g xmlns="http://www.w3.org/2000/svg">
</g>
<g xmlns="http://www.w3.org/2000/svg">
</g>
<g xmlns="http://www.w3.org/2000/svg">
</g>
<g xmlns="http://www.w3.org/2000/svg">
</g>
<g xmlns="http://www.w3.org/2000/svg">
</g>
<g xmlns="http://www.w3.org/2000/svg">
</g>
<g xmlns="http://www.w3.org/2000/svg">
</g>
</g></svg>
