<?xml version="1.0"?>
<svg xmlns="http://www.w3.org/2000/svg" xmlns:xlink="http://www.w3.org/1999/xlink" xmlns:svgjs="http://svgjs.com/svgjs" version="1.1" width="512" height="512" x="0" y="0" viewBox="0 0 480 480" style="enable-background:new 0 0 512 512" xml:space="preserve" class=""><g>
<g xmlns="http://www.w3.org/2000/svg">
	<g>
		<path d="M240,0C107.664,0,0,107.664,0,240s107.664,240,240,240s240-107.664,240-240S372.336,0,240,0z M352,240    c0,61.76-50.24,112-112,112s-112-50.24-112-112s50.24-112,112-112S352,178.24,352,240z M232,16.2v96.208    c-12.104,0.752-23.736,3.176-34.704,7.08l-34.52-89.76C184.48,21.728,207.76,17.056,232,16.2z M147.984,35.848l34.584,89.92    c-9.84,4.968-18.928,11.152-27.112,18.376L87.472,76.16C105.208,59.632,125.624,45.968,147.984,35.848z M76.16,87.472    l67.984,67.984c-18.272,20.696-29.92,47.28-31.744,76.544H16.2C18.168,176.272,40.568,125.672,76.16,87.472z M16.2,248h96.208    c1.824,29.264,13.464,55.848,31.744,76.544l-67.984,67.984C40.576,354.328,18.176,303.728,16.2,248z M240,464    c-58.888,0-112.504-22.872-152.528-60.16l67.984-67.984C178.032,355.792,207.584,368,240,368s61.968-12.208,84.544-32.144    l67.984,67.984C352.504,441.128,298.888,464,240,464z M403.84,392.528l-67.984-67.984C355.792,301.968,368,272.416,368,240    c0-67.88-53.152-123.432-120-127.592V16.2C367.816,20.44,464,119.168,464,240C464,298.888,441.128,352.504,403.84,392.528z" fill="#ffffff" data-original="#000000" style="" class=""/>
	</g>
</g>
<g xmlns="http://www.w3.org/2000/svg">
</g>
<g xmlns="http://www.w3.org/2000/svg">
</g>
<g xmlns="http://www.w3.org/2000/svg">
</g>
<g xmlns="http://www.w3.org/2000/svg">
</g>
<g xmlns="http://www.w3.org/2000/svg">
</g>
<g xmlns="http://www.w3.org/2000/svg">
</g>
<g xmlns="http://www.w3.org/2000/svg">
</g>
<g xmlns="http://www.w3.org/2000/svg">
</g>
<g xmlns="http://www.w3.org/2000/svg">
</g>
<g xmlns="http://www.w3.org/2000/svg">
</g>
<g xmlns="http://www.w3.org/2000/svg">
</g>
<g xmlns="http://www.w3.org/2000/svg">
</g>
<g xmlns="http://www.w3.org/2000/svg">
</g>
<g xmlns="http://www.w3.org/2000/svg">
</g>
<g xmlns="http://www.w3.org/2000/svg">
</g>
</g></svg>
